<?xml version="1.0" encoding="utf-8"?>
<!-- Generator: Adobe Illustrator 26.0.2, SVG Export Plug-In . SVG Version: 6.00 Build 0)  -->
<svg version="1.1" xmlns="http://www.w3.org/2000/svg" xmlns:xlink="http://www.w3.org/1999/xlink" x="0px" y="0px"
	 viewBox="0 0 1107.8 286.7" style="enable-background:new 0 0 1107.8 286.7;" xml:space="preserve">
<style type="text/css">
	.st0{display:none;}
	.st1{display:inline;}
	.st2{fill:none;stroke:#FFFFFF;stroke-miterlimit:10;}
	.st3{fill:#FFFFFF;}
	.st4{font-family:'Redaction20Condensed';}
	.st5{font-size:27.031px;}
	.st6{font-family:'GTAmerica-Regular';}
	.st7{font-size:18px;}
	.st8{fill:none;stroke:#FFFFFF;stroke-linejoin:bevel;stroke-miterlimit:10;}
	.st9{font-size:30px;}
</style>
<g id="Layer_1" class="st0">
	<rect x="-129.6" y="-241.2" class="st1" width="1366" height="768"/>
</g>
<g id="Layer_2">
	<g id="jvxX2E.tif" class="st0">
		
			<image style="display:inline;overflow:visible;" width="1432" height="872" id="Layer_0" xlink:href="857BDCC.png"  transform="matrix(0.5105 0 0 0.5105 166.8936 -90.6596)">
		</image>
	</g>
	<g>
		<rect x="7.2" y="92.9" class="st2" width="222.3" height="93.3"/>
		<text transform="matrix(1 0 0 1 68.1015 131.295)"><tspan x="0" y="0" class="st3 st4 st5">BITCHUTE</tspan><tspan x="-48.5" y="32.4" class="st3 st4 st5">MOST LIKED VIDEOS</tspan></text>
		<text transform="matrix(1 0 0 1 51.6083 16.7428)" class="st3 st6 st7">Query Definition</text>
		<g>
			<path class="st8" d="M272.2,133.2c1.2,3.1,3.3,5.2,6.4,6.4c-3,1.3-5.2,3.3-6.4,6.4"/>
			<line class="st8" x1="229.4" y1="139.5" x2="278.5" y2="139.5"/>
		</g>
		<rect x="278.4" y="92.9" class="st2" width="149" height="93.3"/>
		<text transform="matrix(1 0 0 1 286.5771 145.899)" class="st3 st4 st5">REFINE DATA</text>
		<text transform="matrix(1 0 0 1 521.6953 131.295)"><tspan x="0" y="0" class="st3 st4 st5">DOWNLOAD</tspan><tspan x="-36.8" y="32.4" class="st3 st4 st5">VIDEOS &amp; HASHTAG</tspan></text>
		<text transform="matrix(1 0 0 1 772.5483 131.295)"><tspan x="0" y="0" class="st3 st4 st5">STASTIC</tspan><tspan x="-29.6" y="32.4" class="st3 st4 st5">VISULIZATION</tspan></text>
		<g>
			<path class="st8" d="M470.4,133.2c1.2,3.1,3.3,5.2,6.4,6.4c-3,1.3-5.2,3.3-6.4,6.4"/>
			<line class="st8" x1="427.6" y1="139.5" x2="476.7" y2="139.5"/>
		</g>
		<rect x="477.4" y="92.9" class="st2" width="206.5" height="93.3"/>
		<rect x="733" y="92.9" class="st2" width="159.2" height="93.3"/>
		<g>
			<path class="st8" d="M726.7,133.2c1.2,3.1,3.3,5.2,6.4,6.4c-3,1.3-5.2,3.3-6.4,6.4"/>
			<line class="st8" x1="683.9" y1="139.5" x2="733" y2="139.5"/>
		</g>
		<text transform="matrix(1 0 0 1 954.0668 131.295)"><tspan x="0" y="0" class="st3 st4 st5">INTERACTIVE</tspan><tspan x="-2.7" y="32.4" class="st3 st4 st5">VISULIZATION</tspan></text>
		<rect x="941.4" y="92.9" class="st2" width="159.2" height="93.3"/>
		<g>
			<path class="st8" d="M935,133.2c1.2,3.1,3.3,5.2,6.4,6.4c-3,1.3-5.2,3.3-6.4,6.4"/>
			<line class="st8" x1="892.3" y1="139.5" x2="941.4" y2="139.5"/>
		</g>
		<polyline class="st2" points="7.2,67 7.2,50.3 229.4,50.3 229.4,67 		"/>
		<text transform="matrix(1 0 0 1 379.1832 16.7428)" class="st3 st6 st7">Data Collection &amp; Analysis</text>
		<text transform="matrix(1 0 0 1 864.9565 16.7428)" class="st3 st6 st7">Visualization</text>
		<polyline class="st2" points="279.4,67 279.4,50.3 684.8,50.3 684.8,67 		"/>
		<polyline class="st2" points="733,67 733,50.3 1100.6,50.3 1100.6,67 		"/>
		<g>
			<g>
				<text transform="matrix(1 0 0 1 783.6845 256.4191)" class="st3 st4 st9">Gephi</text>
				<text transform="matrix(1 0 0 1 778.0661 279.9719)" class="st3 st6 st7">.gefx file</text>
			</g>
			<g>
				<text transform="matrix(1 0 0 1 984.3251 256.4196)" class="st3 st4 st9">Sigma.js</text>
				<text transform="matrix(1 0 0 1 994.7306 279.9723)" class="st3 st6 st7">.js file</text>
			</g>
			<g>
				<text transform="matrix(1 0 0 1 519.5095 256.4191)" class="st3 st4 st9">Google Sheet</text>
				<text transform="matrix(1 0 0 1 547.3676 281.0264)" class="st3 st6 st7">.xlsx file</text>
			</g>
			<g>
				<text transform="matrix(1 0 0 1 299.3297 256.4191)" class="st3 st4 st9">Openrefine</text>
				<text transform="matrix(1 0 0 1 319.6429 276.6136)" class="st3 st6 st7">.xlsx file</text>
			</g>
			<g>
				<text transform="matrix(1 0 0 1 89.7982 256.4189)" class="st3 st4 st9">4CAT</text>
				<text transform="matrix(1 0 0 1 85.0167 276.6134)" class="st3 st6 st7">.xlsx file</text>
			</g>
			<line class="st2" x1="118.3" y1="186.2" x2="118.3" y2="214.8"/>
			<line class="st2" x1="352.9" y1="186.2" x2="352.9" y2="214.8"/>
			<line class="st2" x1="582.8" y1="186.2" x2="582.8" y2="214.8"/>
			<line class="st2" x1="812.6" y1="186.2" x2="812.6" y2="214.8"/>
			<line class="st2" x1="1021" y1="186.2" x2="1021" y2="214.8"/>
		</g>
	</g>
</g>
</svg>
