<svg xmlns="http://www.w3.org/2000/svg" viewBox="0 0 37.66 37.66"><defs><style>.cls-1{fill:#fff;}</style></defs><g id="Livello_2" data-name="Livello 2"><g id="Layer_2" data-name="Layer 2"><rect x="0.5" y="0.5" width="36.66" height="36.66"/><path class="cls-1" d="M36.66,1V36.66H1V1H36.66m1-1H0V37.66H37.66V0Z"/><path class="cls-1" d="M23.54,16l-1.05,5.66h4v1.3H22.26l-1.31,7H19.49l1.3-7H15.3l-1.3,7H12.5l1.3-7H10.13v-1.3H14L15.08,16H11.41v-1.3h3.93l1.27-6.9h1.5l-1.27,6.9h5.49l1.27-6.9h1.47l-1.27,6.9h3.73V16Zm-1.47,0H16.58l-1,5.66H21Z"/></g></g></svg>