<svg xmlns="http://www.w3.org/2000/svg" viewBox="0 0 44.38 38.52"><defs><style>.cls-1{fill:#fff;}.cls-2{stroke:#fff;stroke-miterlimit:10;}</style></defs><g id="Livello_2" data-name="Livello 2"><g id="Layer_2" data-name="Layer 2"><path d="M18.83,37.16A18.33,18.33,0,1,1,37.16,18.83,18.35,18.35,0,0,1,18.83,37.16Z"/><path class="cls-1" d="M18.83,1A17.83,17.83,0,1,1,1,18.83,17.85,17.85,0,0,1,18.83,1m0-1h0A18.83,18.83,0,0,0,0,18.83H0A18.83,18.83,0,0,0,18.83,37.66h0A18.83,18.83,0,0,0,37.66,18.83h0A18.83,18.83,0,0,0,18.83,0Z"/><polygon class="cls-2" points="31.06 37.16 25.8 17.65 43.03 28.14 34.93 29.78 31.06 37.16"/></g></g></svg>