<svg id="图层_1" data-name="图层 1" xmlns="http://www.w3.org/2000/svg" viewBox="0 0 700 700">
  <rect width="700" height="700"/>
  <path d="M379.1188,533.119l-18.48-19.039c44.238-43.68,68.32-102.48,68.32-164.64,0-61.602-24.078-119.84-67.762-164.08l19.039-18.48a256.70527,256.70527,0,0,1,75.602,182.56c-.55859,70-28,134.96-76.719,183.68Zm-5.60159-183.12a174.95939,174.95939,0,0,0-51.52-124.32l-18.48,18.48c28,28.559,43.68,66.078,43.68,105.84a150.39124,150.39124,0,0,1-44.238,106.96l18.48,19.039c33.039-34.16,52.078-78.402,52.078-126Zm-81.758,0a93.13715,93.13715,0,0,0-27.441-66.641l-19.039,18.48a67.75638,67.75638,0,0,1,19.602,48.16,66.90541,66.90541,0,0,1-20.719,48.719l18.48,19.039c19.035-18.48,29.117-42,29.117-67.758Z" fill="#fff"/>
</svg>
