<svg id="图层_1" data-name="图层 1" xmlns="http://www.w3.org/2000/svg" viewBox="0 0 700 700">
  <rect width="700" height="700" stroke="#fff" stroke-miterlimit="10" stroke-width="2"/>
  <g>
    <rect x="445.38559" y="308.72037" width="18.54104" height="82.05735" fill="#fff" stroke="#fff" stroke-miterlimit="10" stroke-width="4"/>
    <rect x="426.84455" y="254.25788" width="18.54104" height="54.46249" fill="#fff" stroke="#fff" stroke-miterlimit="10" stroke-width="4"/>
    <rect x="427.52504" y="390.77772" width="18.54104" height="54.46249" fill="#fff" stroke="#fff" stroke-miterlimit="10" stroke-width="4"/>
    <rect x="408.984" y="218.16827" width="18.54104" height="36.0896" fill="#fff" stroke="#fff" stroke-miterlimit="10" stroke-width="4"/>
    <rect x="409.66448" y="445.24022" width="18.54104" height="37.35398" fill="#fff" stroke="#fff" stroke-miterlimit="10" stroke-width="4"/>
    <rect x="391.12344" y="181.49477" width="18.54104" height="37.35398" fill="#fff" stroke="#fff" stroke-miterlimit="10" stroke-width="4"/>
    <rect x="391.80392" y="480.58391" width="18.54104" height="37.35398" fill="#fff" stroke="#fff" stroke-miterlimit="10" stroke-width="4"/>
    <rect x="372.5824" y="163.89608" width="18.54104" height="18.67699" fill="#fff" stroke="#fff" stroke-miterlimit="10" stroke-width="4"/>
    <rect x="373.26289" y="517.42693" width="18.54104" height="18.67699" fill="#fff" stroke="#fff" stroke-miterlimit="10" stroke-width="4"/>
    <rect x="364.1186" y="327.04764" width="18.54104" height="45.40282" fill="#fff" stroke="#fff" stroke-miterlimit="10" stroke-width="4"/>
    <rect x="345.57756" y="281.48913" width="18.54104" height="45.60414" fill="#fff" stroke="#fff" stroke-miterlimit="10" stroke-width="4"/>
    <rect x="327.717" y="237.52575" width="18.54104" height="43.96338" fill="#fff" stroke="#fff" stroke-miterlimit="10" stroke-width="4"/>
    <rect x="309.85645" y="218.16827" width="18.54104" height="19.35747" fill="#fff" stroke="#fff" stroke-miterlimit="10" stroke-width="4"/>
    <rect x="345.57756" y="372.45046" width="18.54104" height="45.60414" fill="#fff" stroke="#fff" stroke-miterlimit="10" stroke-width="4"/>
    <rect x="273.15545" y="343.64916" width="18.54104" height="21.33333" fill="#fff" stroke="#fff" stroke-miterlimit="10" stroke-width="4"/>
    <rect x="236.07337" y="288.06753" width="18.54104" height="21.33333" fill="#fff" stroke="#fff" stroke-miterlimit="10" stroke-width="4"/>
    <rect x="236.07337" y="399.61646" width="18.54104" height="21.33333" fill="#fff" stroke="#fff" stroke-miterlimit="10" stroke-width="4"/>
    <rect x="254.61441" y="308.72037" width="18.54104" height="37.43184" fill="#fff" stroke="#fff" stroke-miterlimit="10" stroke-width="4"/>
    <rect x="254.61441" y="362.86511" width="18.54104" height="37.43184" fill="#fff" stroke="#fff" stroke-miterlimit="10" stroke-width="4"/>
    <rect x="327.717" y="418.0546" width="18.54104" height="43.96338" fill="#fff" stroke="#fff" stroke-miterlimit="10" stroke-width="4"/>
    <rect x="309.85645" y="462.01798" width="18.54104" height="19.35747" fill="#fff" stroke="#fff" stroke-miterlimit="10" stroke-width="4"/>
  </g>
</svg>
